<?xml version="1.0" encoding="utf-8"?>
<!-- Generator: Adobe Illustrator 25.4.8, SVG Export Plug-In . SVG Version: 6.00 Build 0)  -->
<svg version="1.1" id="overlay" xmlns="http://www.w3.org/2000/svg" xmlns:xlink="http://www.w3.org/1999/xlink" x="0px" y="0px"
	 viewBox="0 0 825.1 415.4" style="enable-background:new 0 0 825.1 415.4;" xml:space="preserve">
<style type="text/css">
	.stt0{display:none;fill:none;stroke:#FF0000;}
	.stt1{fill:none;stroke:#EEEEEE;}
	.stt2{fill:none;stroke:#B4B4B4;stroke-width:0.25;}
	.stt3{fill:#231F20;}
	.stt4{font-family:'RobotoSlab-Light';}
	.stt5{font-size:8px;}
	.stt6{font-size:10px;}
	.stt7{clip-path:url(#SVGID_00000167361868426866470420000013705747786499523201_);}
	.stt8{fill:none;}
	.stt10{font-size:14px;}
	.stt11{font-family:'RobotoSlab-Regular';}
	.stt12{fill:none;stroke:#999999;stroke-width:0.5;}
	.stt13{fill:#999999;}
	.stt14{fill:#FF0000;}
	.stt15{font-size:7px;}
	.stt16{fill:none;stroke:#FF0000;stroke-width:0.25;}
	.stt17{fill:none;stroke:#E71818;stroke-width:0.5;stroke-miterlimit:5.8023;}
	.stt18{opacity:0.5;fill:#E71818;}
</style>
<rect x="10.5" y="24.5" class="stt0" width="775" height="540"/>
<line class="stt1" x1="96.4" y1="288.6" x2="770.5" y2="288.6"/>
<line class="stt1" x1="96.4" y1="232.1" x2="770.5" y2="232.1"/>
<line class="stt1" x1="96.4" y1="179.7" x2="770.5" y2="179.7"/>
<line class="stt2" x1="432.5" y1="179.7" x2="432.5" y2="328.9"/>
<g>
	<text transform="matrix(1 0 0 1 430.2019 345.1911)" class="stt3 stt4 stt5">0</text>
</g>
<line class="stt2" x1="769.5" y1="179.7" x2="769.5" y2="328.9"/>
<g>
	<text transform="matrix(1 0 0 1 771.9565 345.1908)" class="stt3 stt4 stt5">1</text>
</g>
<line class="stt2" x1="95.4" y1="179.7" x2="95.4" y2="328.9"/>
<g>
	<text transform="matrix(1 0 0 1 94.375 345.1909)" class="stt3 stt4 stt5">-1</text>
</g>
<line class="stt2" x1="702.1" y1="179.7" x2="702.1" y2="328.9"/>
<g>
	<text transform="matrix(1 0 0 1 696.0996 345.1912)" class="stt3 stt4 stt5">0.8</text>
</g>
<line class="stt2" x1="162.8" y1="179.7" x2="162.8" y2="328.9"/>
<g>
	<text transform="matrix(1 0 0 1 153.3325 345.1905)" class="stt3 stt4 stt5">-0.8</text>
</g>
<line class="stt2" x1="634.7" y1="179.7" x2="634.7" y2="328.9"/>
<g>
	<text transform="matrix(1 0 0 1 628.6982 345.191)" class="stt3 stt4 stt5">0.6</text>
</g>
<line class="stt2" x1="230.2" y1="179.7" x2="230.2" y2="328.9"/>
<g>
	<text transform="matrix(1 0 0 1 220.7456 345.1907)" class="stt3 stt4 stt5">-0.6</text>
</g>
<line class="stt2" x1="567.3" y1="179.7" x2="567.3" y2="328.9"/>
<g>
	<text transform="matrix(1 0 0 1 561.1855 345.1909)" class="stt3 stt4 stt5">0.4</text>
</g>
<line class="stt2" x1="297.6" y1="179.7" x2="297.6" y2="328.9"/>
<g>
	<text transform="matrix(1 0 0 1 288.0479 345.1913)" class="stt3 stt4 stt5">-0.4</text>
</g>
<line class="stt2" x1="499.9" y1="179.7" x2="499.9" y2="328.9"/>
<g>
	<text transform="matrix(1 0 0 1 493.8994 345.1907)" class="stt3 stt4 stt5">0.2</text>
</g>
<line class="stt2" x1="365.1" y1="179.7" x2="365.1" y2="328.9"/>
<g>
	<text transform="matrix(1 0 0 1 355.5762 345.1904)" class="stt3 stt4 stt5">-0.2</text>
</g>
<g>
	<text transform="matrix(1 0 0 1 97.3953 382.8115)" class="stt3 stt4 stt6">More reposts</text>
</g>
<g>
	<text transform="matrix(1 0 0 1 700 382.8115)" class="stt3 stt4 stt6">More “own” posts</text>
</g>
<text transform="matrix(1 0 0 1 44.089 292.7798)" class="stt3 stt4 stt5">Zaporizhzhia oblast</text>
<text transform="matrix(1 0 0 1 44.175 236.2108)" class="stt3 stt4 stt5">Kharkiv oblast</text>
<text transform="matrix(1 0 0 1 39.7312 183.8843)" class="stt3 stt4 stt5">Kherson oblast</text>
<g>
	<defs>
		<polygon id="SVGID_1_" points="11.5,78.1 12.5,78.1 11.5,79.1 		"/>
	</defs>
	<defs>
		<polygon id="SVGID_00000138569518683482200410000008810952097323195827_" points="9.5,76.1 8.5,76.1 9.5,75.1 		"/>
	</defs>
	<clipPath id="SVGID_00000048498199327146097790000004240023069701192093_">
		<use xlink:href="#SVGID_1_"  style="overflow:visible;"/>
	</clipPath>
	
		<clipPath id="SVGID_00000176042825639947673700000004357972512010315651_" style="clip-path:url(#SVGID_00000048498199327146097790000004240023069701192093_);">
		<use xlink:href="#SVGID_00000138569518683482200410000008810952097323195827_"  style="overflow:visible;"/>
	</clipPath>
</g>
<g id="axes-highlights">
	<g>
		<g transform="translate(0, 14)">
		</g>
	</g>
</g>
<rect x="91.6" y="22.3" class="stt8" width="445.2" height="87.5"/>
<text transform="matrix(1 0 0 1 91.5532 33.0134)"><tspan x="0" y="0" class="stt3 stt9 stt10" style='font-weight: 600'>Content originality index</tspan><tspan x="0" y="16.8" class="stt3 stt9 stt10"> </tspan><tspan x="0" y="28.8" class="stt3 stt9 stt6">0</tspan><tspan x="5.7" y="28.8" class="stt3 stt4 stt6"> </tspan><tspan x="8.1" y="28.8" class="stt3 stt11 stt6">means an equal balance of reports and original posts</tspan><tspan x="0" y="40.8" class="stt3 stt9 stt6">1 </tspan><tspan x="6.9" y="40.8" class="stt3 stt11 stt6">– all posts are original </tspan><tspan x="0" y="52.8" class="stt3 stt9 stt6">-1</tspan><tspan x="8.4" y="52.8" class="stt3 stt4 stt6"> </tspan><tspan x="10.8" y="52.8" class="stt3 stt11 stt6">– the channel only offers reposts.</tspan><tspan x="0" y="64.8" class="stt3 stt11 stt6">The dot size corresponds to the number of publications from the creation to 1 September.</tspan></text>
<g>
	<g>
		<line class="stt12" x1="426.7" y1="368.3" x2="96" y2="368.3"/>
		<g>
			<path class="stt13" d="M99.4,365.9c0.1,0.1,0,0.3-0.1,0.3l-3.2,2.1l3.2,2.1c0.1,0.1,0.2,0.2,0.1,0.3s-0.2,0.1-0.3,0.1l-3.6-2.3
				c-0.1,0-0.1-0.1-0.1-0.2s0-0.2,0.1-0.2l3.6-2.3c0,0,0.1,0,0.1,0C99.3,365.8,99.4,365.9,99.4,365.9z"/>
		</g>
	</g>
</g>
<g>
	<g>
		<line class="stt12" x1="439.3" y1="368.3" x2="771" y2="368.3"/>
		<g>
			<path class="stt13" d="M767.6,370.7c-0.1-0.1,0-0.3,0.1-0.3l3.2-2.1l-3.2-2.1c-0.1-0.1-0.2-0.2-0.1-0.3s0.2-0.1,0.3-0.1l3.6,2.3
				c0.1,0,0.1,0.1,0.1,0.2s0,0.2-0.1,0.2l-3.6,2.3c0,0-0.1,0-0.1,0C767.7,370.8,767.6,370.8,767.6,370.7z"/>
		</g>
	</g>
</g>
<rect x="200.6" y="248.4" class="stt8" width="78.2" height="46.7"/>
<text transform="matrix(1 0 0 1 200.6181 253.7178)"><tspan x="0" y="0" class="stt14 stt4 stt15">ZAPOROZHYE</tspan><tspan x="0" y="8.4" class="stt14 stt4 stt15">PEOPLE'S</tspan><tspan x="0" y="16.8" class="stt14 stt4 stt15">REPUBLIC</tspan></text>
<rect x="205.5" y="151.8" class="stt8" width="78.2" height="46.7"/>
<text transform="matrix(1 0 0 1 205.5206 157.1091)"><tspan x="0" y="0" class="stt14 stt4 stt15">Novokahovskaya </tspan><tspan x="0" y="8.4" class="stt14 stt4 stt15">PRAVDA</tspan></text>
<rect x="488.7" y="63.1" class="stt8" width="23.4" height="7.8"/>
<text transform="matrix(1 0 0 1 489.1494 68.4791)" class="stt14 stt4 stt15">15 067</text>
<rect x="488.7" y="88.1" class="stt8" width="23.4" height="7.8"/>
<text transform="matrix(1 0 0 1 496.1841 93.4578)" class="stt14 stt4 stt15">42</text>
<line class="stt16" x1="192.3" y1="288.6" x2="199.2" y2="271.7"/>
<line class="stt16" x1="199.6" y1="179.7" x2="205.2" y2="166.2"/>
<rect x="654.6" y="210.4" class="stt8" width="78.2" height="7.4"/>
<text transform="matrix(1 0 0 1 654.6327 215.6825)" class="stt14 stt4 stt15">Kharkov Z</text>
<rect x="595" y="150.7" class="stt8" width="78.2" height="15.5"/>
<text transform="matrix(1 0 0 1 594.9772 155.9991)"><tspan x="0" y="0" class="stt14 stt4 stt15">Kherson </tspan><tspan x="0" y="8.4" class="stt14 stt4 stt15">Herald</tspan></text>
<line class="stt16" x1="648.7" y1="231.3" x2="654.3" y2="217.8"/>
<line class="stt16" x1="589" y1="179.7" x2="594.6" y2="166.2"/>
<rect x="433.1" y="259.9" class="stt8" width="78.2" height="15.5"/>
<text transform="matrix(1 0 0 1 433.0587 265.2448)"><tspan x="0" y="0" class="stt14 stt4 stt15">Zaporozhye 24 | </tspan><tspan x="0" y="8.4" class="stt14 stt4 stt15">News</tspan></text>
<line class="stt16" x1="427.1" y1="289" x2="432.6" y2="275.4"/>
<rect x="678.3" y="251.9" class="stt8" width="54.5" height="22.5"/>
<text transform="matrix(1 0 0 1 678.301 257.236)"><tspan x="0" y="0" class="stt14 stt4 stt15">Melitopol </tspan><tspan x="0" y="8.4" class="stt14 stt4 stt15">News </tspan><tspan x="0" y="16.8" class="stt14 stt4 stt15">and More</tspan></text>
<line class="stt16" x1="672.3" y1="289" x2="677.9" y2="275.4"/>
<rect x="558.5" y="260.4" class="stt8" width="54.5" height="22.5"/>
<text transform="matrix(1 0 0 1 558.4586 265.778)"><tspan x="0" y="0" class="stt14 stt4 stt15">Berdyansk</tspan><tspan x="0" y="8.4" class="stt14 stt4 stt15">is Ours</tspan></text>
<line class="stt16" x1="555.3" y1="281.5" x2="558" y2="275.4"/>
<rect x="650.9" y="158.7" class="stt8" width="78.2" height="15.5"/>
<text transform="matrix(1 0 0 1 650.9104 163.9991)" class="stt14 stt4 stt15">Kherson.ru</text>
<line class="stt16" x1="644.9" y1="179.7" x2="650.5" y2="166.2"/>
<rect x="386.8" y="142.7" class="stt8" width="52.4" height="23.5"/>
<text transform="matrix(1 0 0 1 386.7931 147.9854)"><tspan x="0" y="0" class="stt14 stt4 stt15">Kahovka</tspan><tspan x="0" y="8.4" class="stt14 stt4 stt15">City</tspan><tspan x="0" y="16.8" class="stt14 stt4 stt15">Life</tspan></text>
<line class="stt16" x1="380.9" y1="179.7" x2="386.4" y2="166.2"/>
<rect x="446.6" y="154.4" class="stt8" width="63.7" height="15.5"/>
<text transform="matrix(1 0 0 1 446.5967 159.7532)"><tspan x="0" y="0" class="stt14 stt4 stt15">The Real  </tspan><tspan x="0" y="8.4" class="stt14 stt4 stt15">Kherson</tspan></text>
<line class="stt16" x1="443.4" y1="174.7" x2="446.2" y2="169"/>
<path class="stt16" d="M219.7,306.8"/>
<circle class="stt17" cx="500.1" cy="84.9" r="13.9"/>
<circle class="stt17" cx="500.1" cy="96.9" r="1.9"/>

<circle class="stt18" cx='648.5' cy='232.1' r='13.7'/>
<circle class="stt18" cx='428.1' cy='232.1' r='6.2'/>
<circle class="stt18" cx='597.5' cy='232.1' r='5.3'/>
<circle class="stt18" cx='552.4' cy='232.1' r='5.9'/>
<circle class="stt18" cx='279.8' cy='232.1' r='3.2'/>
<circle class="stt18" cx='306' cy='232.1' r='3.5'/>
<circle class="stt18" cx='300.3' cy='232.1' r='3.5'/>
<circle class="stt18" cx='273.3' cy='232.1' r='3.2'/>
<circle class="stt18" cx='278' cy='232.1' r='3.2'/>
<circle class="stt18" cx='282.6' cy='232.1' r='3.2'/>
<circle class="stt18" cx='305.9' cy='232.1' r='3.5'/>
<circle class="stt18" cx='275.3' cy='232.1' r='3.2'/>
<circle class="stt18" cx='350.1' cy='232.1' r='3.2'/>
<circle class="stt18" cx='764.5' cy='232.1' r='1.8'/>

<circle class="stt18" cx='200.2' cy='179.5' r='11.5'/>
<circle class="stt18" cx='382.3' cy='179.5' r='9.1'/>
<circle class="stt18" cx='589.8' cy='179.5' r='9.9'/>
<circle class="stt18" cx='404.5' cy='179.5' r='6.4'/>
<circle class="stt18" cx='439.1' cy='179.5' r='9.4'/>
<circle class="stt18" cx='440.3' cy='179.5' r='6.3'/>
<circle class="stt18" cx='271.3' cy='179.5' r='5.3'/>
<circle class="stt18" cx='646.0' cy='179.5' r='7.8'/>
<circle class="stt18" cx='159.4' cy='179.5' r='4.4'/>
<circle class="stt18" cx='675.9' cy='179.5' r='6'/>
<circle class="stt18" cx='628.9' cy='179.5' r='6.3'/>
<circle class="stt18" cx='610.2' cy='179.5' r='4.3'/>
<circle class="stt18" cx='409.8' cy='179.5' r='4.9'/>
<circle class="stt18" cx='571.1' cy='179.5' r='3.3'/>
<circle class="stt18" cx='252.1' cy='179.5' r='4'/>
<circle class="stt18" cx='341.8' cy='179.5' r='4.5'/>
<circle class="stt18" cx='345.2' cy='179.5' r='4.5'/>
<circle class="stt18" cx='344.5' cy='179.5' r='4.6'/>
<circle class="stt18" cx='336.9' cy='179.5' r='4.1'/>

<path class="stt18" d="M541.3,179.5c0,1.1-0.9,1.9-1.9,1.9s-1.9-0.9-1.9-1.9c0-1.1,0.9-1.9,1.9-1.9S541.3,178.4,541.3,179.5"/>
<path class="stt18" d="M438,179.5c0,1.1-0.9,2-2,2c-1.1,0-2-0.9-2-2c0-1.1,0.9-2,2-2C437,177.4,438,178.3,438,179.5"/>
<path class="stt18" d="M596.3,179.5c0,1.3-1.1,2.4-2.4,2.4s-2.4-1.1-2.4-2.4c0-1.3,1.1-2.4,2.4-2.4S596.3,178.1,596.3,179.5"/>
<path class="stt18" d="M363.4,179.5c0,1.3-1,2.3-2.3,2.3c-1.3,0-2.3-1-2.3-2.3c0-1.3,1-2.3,2.3-2.3
	C362.4,177.2,363.4,178.2,363.4,179.5"/>


<circle class="stt18" cx='743.4' cy='179.5' r='3.6'/>

<path class="stt18" d="M564,179.5c0,1.1-0.9,2.1-2.1,2.1c-1.1,0-2.1-0.9-2.1-2.1c0-1.1,0.9-2.1,2.1-2.1
	C563.1,177.4,564,178.3,564,179.5"/>
<path class="stt18" d="M312.1,179.5c0,1-0.8,1.8-1.8,1.8c-1,0-1.8-0.8-1.8-1.8c0,0,0,0,0,0c0-1,0.8-1.8,1.8-1.8
	C311.3,177.6,312.1,178.4,312.1,179.5C312.1,179.5,312.1,179.5,312.1,179.5"/>
<path class="stt18" d="M283.5,179.5c0,1.5-1.2,2.7-2.7,2.7c-1.5,0-2.7-1.2-2.7-2.7c0,0,0,0,0,0c0-1.5,1.2-2.7,2.7-2.7
	S283.5,178,283.5,179.5C283.5,179.5,283.5,179.5,283.5,179.5"/>
<path class="stt18" d="M265.3,179.5c0,1.5-1.3,2.8-2.8,2.8s-2.8-1.3-2.8-2.8c0-1.5,1.3-2.8,2.8-2.8S265.3,177.9,265.3,179.5"/>
<path class="stt18" d="M757.3,179.5c0,1-0.8,1.8-1.8,1.8c-1,0-1.8-0.8-1.8-1.8c0,0,0,0,0,0c0-1,0.8-1.8,1.8-1.8
	C756.5,177.6,757.3,178.4,757.3,179.5C757.3,179.5,757.3,179.5,757.3,179.5"/>
<path class="stt18" d="M360.8,179.5c0,1-0.8,1.8-1.8,1.8c-1,0-1.8-0.8-1.8-1.8c0,0,0,0,0,0c0-1,0.8-1.8,1.8-1.8
	C359.9,177.6,360.8,178.4,360.8,179.5C360.8,179.5,360.8,179.5,360.8,179.5"/>


<circle class="stt18" cx='193.3' cy='288.6' r='16.4'/>
<circle class="stt18" cx='552.5' cy='288.6' r='7.6'/>
<circle class="stt18" cx='671.1' cy='288.6' r='7.6'/>
<circle class="stt18" cx='427.7' cy='288.6' r='7.5'/>
<circle class="stt18" cx='476.4' cy='288.6' r='5.3'/>
<circle class="stt18" cx='714.2' cy='288.6' r='3.7'/>
<circle class="stt18" cx='600.3' cy='288.6' r='4.5'/>
<circle class="stt18" cx='573.8' cy='288.6' r='4.5'/>
<circle class="stt18" cx='644.2' cy='288.6' r='6.2'/>
<circle class="stt18" cx='549.3' cy='288.6' r='6.1'/>
<circle class="stt18" cx='525.7' cy='288.6' r='5.7'/>
<circle class="stt18" cx='481.9' cy='288.6' r='5.5'/>
<circle class="stt18" cx='557.3' cy='288.6' r='5.7'/>
<circle class="stt18" cx='502.6' cy='288.6' r='5.4'/>
<circle class="stt18" cx='288.0' cy='288.6' r='4.3'/>
<circle class="stt18" cx='461.1' cy='288.6' r='4.1'/>
<circle class="stt18" cx='687.3' cy='288.6' r='5.2'/>
<circle class="stt18" cx='737.1' cy='288.6' r='5.1'/>
<circle class="stt18" cx='370' cy='288.6' r='3'/>
<circle class="stt18" cx='616.2' cy='288.6' r='2.1'/>
<circle class="stt18" cx='264.2' cy='288.6' r='4.2'/>
<circle class="stt18" cx='459.8' cy='288.6' r='3.4'/>
<circle class="stt18" cx='667.2' cy='288.6' r='2.3'/>
<circle class="stt18" cx='508.8' cy='288.6' r='2.5'/>
<circle class="stt18" cx='700.7' cy='288.6' r='3.1'/>
<circle class="stt18" cx='691.8' cy='288.6' r='2.2'/>
<circle class="stt18" cx='251.5' cy='288.6' r='2.8'/>
<circle class="stt18" cx='636.7' cy='288.6' r='1.8'/>
<circle class="stt18" cx='266.0' cy='288.6' r='1.8'/>



<g>
	<path d="M740.5,29.4c0,1.1-0.3,2-0.8,2.8c-0.6,0.8-1.4,1.3-2.5,1.3c-1,0-1.8-0.4-2.4-1.1c-0.6-0.7-0.9-1.7-0.9-3
		c0-1.1,0.3-2.1,0.8-2.8c0.6-0.8,1.4-1.2,2.4-1.2c1,0,1.9,0.4,2.5,1.2C740.2,27.2,740.5,28.2,740.5,29.4z M739.8,29.4
		c0-1-0.2-1.9-0.7-2.5c-0.5-0.6-1.1-0.9-1.9-0.9c-0.8,0-1.5,0.3-2,1c-0.4,0.6-0.6,1.4-0.6,2.4c0,1,0.2,1.8,0.6,2.4
		c0.5,0.7,1.1,1,2,1c0.9,0,1.5-0.4,2-1.1C739.6,31.1,739.8,30.3,739.8,29.4z"/>
	<path d="M730,30.4v3h-1.6v-3.1l-2.6-4.8h1.9l1.5,3.2l1.5-3.2h1.8L730,30.4z"/>
	<path d="M725.4,27h-2.3v6.4h-1.7V27h-2.3v-1.5h6.2V27z"/>
	<path d="M716.4,29.3l2.7,4.1h-2l-1.7-2.7l-1.7,2.7h-1.9l2.7-4.1l-2.5-3.8h1.9l1.5,2.5l1.5-2.5h1.8L716.4,29.3z"/>
	<path d="M711.1,26.9H708v1.7h2.8V30H708v1.9h3.2v1.5h-4.8v-7.9h4.8V26.9z"/>
	<path d="M705.6,27h-2.3v6.4h-1.7V27h-2.3v-1.5h6.2V27z"/>
	<path d="M754,33.2h-0.6v-1.3c-0.3,0.5-0.6,0.9-1,1.1c-0.4,0.3-0.9,0.4-1.6,0.4c-1,0-1.8-0.4-2.4-1.2c-0.5-0.7-0.8-1.7-0.8-2.9
		c0-1.2,0.3-2.2,0.8-2.9c0.6-0.7,1.4-1.1,2.4-1.1c0.8,0,1.4,0.2,1.9,0.6c0.5,0.4,0.9,1,1,1.8h-0.7c-0.1-0.6-0.4-1-0.8-1.3
		c-0.4-0.3-0.9-0.5-1.4-0.5c-0.9,0-1.5,0.3-2,1c-0.4,0.6-0.6,1.5-0.6,2.7c0,0.9,0.2,1.7,0.7,2.3c0.5,0.6,1.1,1,1.9,1
		c0.7,0,1.3-0.2,1.7-0.7c0.2-0.3,0.4-0.6,0.5-0.9c0.1-0.4,0.2-0.8,0.2-1.3H751v-0.6h3V33.2z"/>
	<path d="M762.8,30.2c0,1.1-0.2,1.9-0.7,2.4c-0.5,0.5-1.2,0.8-2.1,0.8c-0.9,0-1.5-0.2-2-0.7c-0.5-0.5-0.8-1.4-0.8-2.5v-4.7h0.7V30
		c0,1,0.2,1.7,0.5,2.1c0.3,0.4,0.9,0.7,1.6,0.7c0.7,0,1.2-0.2,1.6-0.6c0.4-0.4,0.6-1.2,0.6-2.2v-4.5h0.7V30.2z"/>
	<path d="M769.5,33.4l-0.7,0l-0.8-2.5h-3.3l-0.9,2.5l-0.7,0l2.9-7.9h0.8L769.5,33.4z M767.7,30.3l-1.4-4.1l-1.4,4.1H767.7z"/>
	<circle cx="732.7" cy="32.7" r="0.7"/>
	<circle cx="756" cy="32.7" r="0.7"/>
	<path d="M747.4,33.4l-2.2-3.4c0.2,0,0.4-0.1,0.6-0.2c1.1-0.5,1.2-1.7,1.2-2.2c0-0.7-0.2-1.3-0.7-1.6c-0.4-0.3-1-0.5-1.8-0.5h-2.9v8
		h0.7V30h2l2.2,3.4L747.4,33.4z M742.3,26h2.2c0.6,0,1.1,0.2,1.4,0.5c0.2,0.2,0.3,0.6,0.3,1c0,0.5-0.2,1.1-0.5,1.4
		c-0.3,0.3-0.8,0.4-1.3,0.4h-2.2V26z"/>
</g>
</svg>
